# File created by Blade
# Date/Time:  Wed Sep 24 20:26:02 2014
# Frame Rate: 120.000 fps
#------------------------------------------------------
:FULLY-SPECIFIED
:DEGREES
452
root -9.019262 32.644465 1.224556 143.553766 -79.592988 -101.497225
Spine -26.321122 11.096332 -1.891425
Head -20.535300 2.009530 12.165978
LeftShoulder -9.664330 23.440441 10.561278
LeftArm 18.402277 40.117129 -67.548615
LeftForeArm 9.695361 -0.000000 18.545959
LeftHand -26.512226 -0.000000 -4.558975
LeftHandThumb1 -26.253704 0.000000 33.147579
RightShoulder -17.798475 7.856179 -23.699641
RightArm -22.609754 -35.612375 103.056504
RightForeArm -25.299691 -0.000000 17.080129
RightHand -3.218615 -0.000000 17.200777
RightHandThumb1 -24.326973 -0.000000 -32.862282
LeftUpLeg -33.354912 5.414622 -2.221315
LeftLeg -7.297881 -0.000000 0.000000
LeftFoot -11.641351 14.078509 -8.666941
LeftToeBase 5.025830 -0.000000 -0.000000
RightUpLeg 11.396307 -12.540035 -7.731508
RightLeg 13.811910 -0.000000 -0.000000
RightFoot 36.084075 4.385850 1.224969
RightToeBase 13.281940 -0.000000 -0.000000
453
root -9.008780 32.646776 1.224058 143.989878 -79.494047 -101.619783
Spine -26.339742 11.086325 -1.846267
Head -20.900408 2.260854 12.120501
LeftShoulder -9.639105 23.407908 10.559190
LeftArm 18.259441 40.285543 -67.579257
LeftForeArm 9.900878 -0.000000 18.469810
LeftHand -26.515936 0.000000 -4.823794
LeftHandThumb1 -26.253704 0.000000 33.147579
RightShoulder -17.771205 7.794142 -23.721027
RightArm -22.573880 -35.509795 103.074932
RightForeArm -25.412995 -0.000000 16.947176
RightHand -3.066722 0.000000 17.376880
RightHandThumb1 -24.326973 -0.000000 -32.862282
LeftUpLeg -33.659019 5.438723 -2.182101
LeftLeg -7.366827 -0.000000 0.000000
LeftFoot -11.596038 14.175899 -8.518427
LeftToeBase 4.988814 -0.000000 -0.000000
RightUpLeg 11.448218 -12.511302 -7.801576
RightLeg 13.828449 -0.000000 -0.000000
RightFoot 36.183769 4.424819 1.175334
RightToeBase 13.330162 -0.000000 -0.000000
454
root -8.998729 32.645766 1.227743 144.411439 -79.466281 -101.723131
Spine -26.389593 11.043674 -1.881890
Head -21.237394 2.456412 12.155656
LeftShoulder -9.563414 23.431137 10.651233
LeftArm 18.154806 40.384302 -67.672432
LeftForeArm 10.084158 -0.000000 18.387690
LeftHand -26.515915 0.000000 -4.788138
LeftHandThumb1 -26.253704 0.000000 33.147579
RightShoulder -17.851105 7.647426 -23.724570
RightArm -22.481162 -35.646804 103.096381
RightForeArm -25.527099 -0.000000 16.815000
RightHand -3.030171 0.000000 17.480911
RightHandThumb1 -24.326973 -0.000000 -32.862282
LeftUpLeg -33.969239 5.388775 -2.178955
LeftLeg -7.418479 -0.000000 0.000000
LeftFoot -11.547816 14.282027 -8.338501
LeftToeBase 4.997286 -0.000000 -0.000000
RightUpLeg 11.526214 -12.516501 -7.927633
RightLeg 13.847351 -0.000000 -0.000000
RightFoot 36.219491 4.449300 1.307698
RightToeBase 13.283875 -0.000000 -0.000000
455
root -8.993105 32.646097 1.228165 144.750792 -79.386812 -101.786615
Spine -26.363053 11.016455 -1.824091
Head -21.602969 2.675627 12.132407
LeftShoulder -9.580104 23.494942 10.614948
LeftArm 18.204964 40.575452 -67.567707
LeftForeArm 10.101082 0.000000 18.273167
LeftHand -26.571896 0.000000 -4.794351
LeftHandThumb1 -26.253704 0.000000 33.147579
RightShoulder -17.758690 7.778327 -23.773933
RightArm -22.750014 -35.484081 103.242700
RightForeArm -25.781726 -0.000000 16.815752
RightHand -3.011034 -0.000000 17.668975
RightHandThumb1 -24.326973 -0.000000 -32.862282
LeftUpLeg -34.209592 5.427503 -2.164176
LeftLeg -7.521109 -0.000000 0.000000
LeftFoot -11.482047 14.338625 -8.160715
LeftToeBase 4.956412 -0.000000 -0.000000
RightUpLeg 11.618926 -12.333877 -7.958552
RightLeg 13.869060 -0.000000 -0.000000
RightFoot 36.290728 4.265539 1.498264
RightToeBase 13.399591 -0.000000 -0.000000
456
root -8.983850 32.648172 1.226255 145.103062 -79.299098 -101.833613
Spine -26.385189 11.003007 -1.800034
Head -21.956807 2.872380 12.142132
LeftShoulder -9.529219 23.491158 10.639272
LeftArm 18.073096 40.650268 -67.630329
LeftForeArm 10.273905 -0.000000 18.185929
LeftHand -26.655944 -0.000000 -4.856379
LeftHandThumb1 -26.253704 0.000000 33.147579
RightShoulder -17.717534 7.805639 -23.786388
RightArm -22.887905 -35.487648 103.380519
RightForeArm -25.720125 -0.000000 16.686105
RightHand -2.871928 -0.000000 17.523693
RightHandThumb1 -24.326973 -0.000000 -32.862282
LeftUpLeg -34.493076 5.452029 -2.113748
LeftLeg -7.597667 -0.000000 0.000000
LeftFoot -11.441288 14.368740 -8.075375
LeftToeBase 4.946542 -0.000000 -0.000000
RightUpLeg 11.702726 -12.288497 -8.018416
RightLeg 13.874899 -0.000000 -0.000000
RightFoot 36.420945 4.354218 1.438570
RightToeBase 13.155464 -0.000000 -0.000000
457
root -8.973762 32.648967 1.228609 145.516587 -79.219556 -101.941663
Spine -26.395848 10.975437 -1.768264
Head -22.314068 3.021110 12.138372
LeftShoulder -9.561118 23.520227 10.613087
LeftArm 18.053185 40.752175 -67.602783
LeftForeArm 10.445326 -0.000000 18.077968
LeftHand -26.550580 -0.000000 -5.170060
LeftHandThumb1 -26.253704 0.000000 33.147579
RightShoulder -17.698032 7.772600 -23.814441
RightArm -22.921783 -35.531506 103.440389
RightForeArm -25.702118 -0.000000 16.663667
RightHand -2.999349 0.000000 17.882542
RightHandThumb1 -24.326973 -0.000000 -32.862282
LeftUpLeg -34.774749 5.456380 -2.081211
LeftLeg -7.688417 -0.000000 0.000000
LeftFoot -11.368718 14.480401 -7.922957
LeftToeBase 4.863787 -0.000000 -0.000000
RightUpLeg 11.744963 -12.344824 -8.136445
RightLeg 13.953947 -0.000000 -0.000000
RightFoot 36.511423 4.391107 1.595074
RightToeBase 13.336318 -0.000000 -0.000000
458
root -8.962377 32.652620 1.228961 145.873577 -79.122417 -101.990880
Spine -26.412629 10.984929 -1.734011
Head -22.647088 3.189709 12.144551
LeftShoulder -9.506699 23.525981 10.646695
LeftArm 17.973060 40.807109 -67.693363
LeftForeArm 10.552537 -0.000000 17.913790
LeftHand -26.499817 -0.000000 -5.090417
LeftHandThumb1 -26.253704 0.000000 33.147579
RightShoulder -17.691950 7.721693 -23.826007
RightArm -22.949112 -35.553633 103.502391
RightForeArm -25.720662 -0.000000 16.595546
RightHand -2.976016 -0.000000 17.836542
RightHandThumb1 -24.326973 -0.000000 -32.862282
LeftUpLeg -35.067131 5.474303 -2.019021
LeftLeg -7.761369 -0.000000 0.000000
LeftFoot -11.319222 14.544417 -7.832152
LeftToeBase 4.897504 -0.000000 -0.000000
RightUpLeg 11.789362 -12.362446 -8.203585
RightLeg 13.997694 -0.000000 -0.000000
RightFoot 36.627610 4.401094 1.556270
RightToeBase 13.327537 -0.000000 -0.000000
459
root -8.949680 32.656053 1.231449 146.397318 -79.027373 -102.200881
Spine -26.427855 11.000803 -1.720970
Head -22.989802 3.393063 12.121930
LeftShoulder -9.481261 23.522433 10.661560
LeftArm 17.843397 40.790170 -67.792881
LeftForeArm 10.637773 -0.000000 17.853742
LeftHand -26.523014 -0.000000 -5.113729
LeftHandThumb1 -26.253704 0.000000 33.147579
RightShoulder -17.669447 7.771763 -23.866595
RightArm -23.098136 -35.557777 103.659828
RightForeArm -25.945156 -0.000000 16.451336
RightHand -2.738351 -0.000000 17.746062
RightHandThumb1 -24.326973 -0.000000 -32.862282
LeftUpLeg -35.370110 5.525616 -1.999503
LeftLeg -7.837102 -0.000000 0.000000
LeftFoot -11.256404 14.583389 -7.808371
LeftToeBase 4.797488 -0.000000 -0.000000
RightUpLeg 11.827066 -12.381864 -8.310779
RightLeg 14.051066 -0.000000 -0.000000
RightFoot 36.720744 4.504073 1.410833
RightToeBase 12.948878 -0.000000 -0.000000
460
root -8.936633 32.659385 1.236684 146.962660 -78.921329 -102.458788
Spine -26.439390 11.054353 -1.711501
Head -23.330968 3.531026 12.068927
LeftShoulder -9.434071 23.377273 10.687934
LeftArm 17.566958 40.839067 -67.979606
LeftForeArm 10.678709 0.000000 17.788591
LeftHand -26.566163 -0.000000 -5.096272
LeftHandThumb1 -26.253704 0.000000 33.147579
RightShoulder -17.679360 7.697071 -23.870206
RightArm -23.076736 -35.571053 103.652347
RightForeArm -25.786212 0.000000 16.491236
RightHand -2.939772 -0.000000 18.024098
RightHandThumb1 -24.326973 -0.000000 -32.862282
LeftUpLeg -35.686635 5.637394 -2.024705
LeftLeg -7.873730 -0.000000 0.000000
LeftFoot -11.221849 14.542144 -7.772275
LeftToeBase 4.786821 -0.000000 -0.000000
RightUpLeg 11.844281 -12.336026 -8.414095
RightLeg 14.131683 -0.000000 -0.000000
RightFoot 36.655263 4.379261 1.608335
RightToeBase 13.462474 -0.000000 -0.000000
461
root -8.924496 32.662159 1.241093 147.538544 -78.830466 -102.726862
Spine -26.464364 11.063839 -1.713267
Head -23.650266 3.698050 12.042451
LeftShoulder -9.462474 23.512577 10.658670
LeftArm 17.605207 40.731895 -67.967600
LeftForeArm 10.816636 -0.000000 17.768224
LeftHand -26.739455 -0.000000 -5.277203
LeftHandThumb1 -26.253704 0.000000 33.147579
RightShoulder -17.650250 7.715086 -23.895285
RightArm -23.202366 -35.604904 103.781207
RightForeArm -25.792836 -0.000000 16.432312
RightHand -2.905974 -0.000000 17.999856
RightHandThumb1 -24.326973 -0.000000 -32.862282
LeftUpLeg -36.011410 5.792306 -2.099926
LeftLeg -7.908546 -0.000000 0.000000
LeftFoot -11.165095 14.417285 -7.799146
LeftToeBase 4.724178 -0.000000 -0.000000
RightUpLeg 11.874145 -12.380149 -8.547799
RightLeg 14.199744 -0.000000 -0.000000
RightFoot 36.712584 4.501241 1.394777
RightToeBase 13.105184 -0.000000 -0.000000
462
root -8.915408 32.662354 1.247089 148.100471 -78.794720 -103.004181
Spine -26.473952 11.032894 -1.768725
Head -23.937130 3.830345 12.047542
LeftShoulder -9.394553 23.443502 10.743065
LeftArm 17.336501 40.685810 -68.202030
LeftForeArm 10.831637 -0.000000 17.732993
LeftHand -26.789546 -0.000000 -4.947989
LeftHandThumb1 -26.253704 0.000000 33.147579
RightShoulder -17.641931 7.682718 -23.867294
RightArm -23.252934 -35.660085 103.829046
RightForeArm -25.788552 -0.000000 16.435909
RightHand -3.012272 -0.000000 18.103444
RightHandThumb1 -24.326973 -0.000000 -32.862282
LeftUpLeg -36.291256 5.875934 -2.190730
LeftLeg -7.965385 -0.000000 0.000000
LeftFoot -11.110235 14.341952 -7.788841
LeftToeBase 4.761884 -0.000000 -0.000000
RightUpLeg 11.960105 -12.427629 -8.718421
RightLeg 14.219241 -0.000000 -0.000000
RightFoot 36.727099 4.474630 1.425806
RightToeBase 13.080290 -0.000000 -0.000000
463
root -8.901437 32.665636 1.251731 148.523826 -78.726250 -103.112500
Spine -26.501018 11.041066 -1.763247
Head -24.269890 3.951097 12.001157
LeftShoulder -9.427784 23.520575 10.734267
LeftArm 17.411909 40.683210 -68.176827
LeftForeArm 10.851461 -0.000000 17.636189
LeftHand -26.783062 0.000000 -4.945833
LeftHandThumb1 -26.253704 0.000000 33.147579
RightShoulder -17.619964 7.667495 -23.867781
RightArm -23.319956 -35.584059 103.859886
RightForeArm -25.977797 -0.000000 16.412744
RightHand -2.918650 0.000000 18.215960
RightHandThumb1 -24.326973 -0.000000 -32.862282
LeftUpLeg -36.642359 6.040774 -2.300360
LeftLeg -7.972952 -0.000000 0.000000
LeftFoot -11.049710 14.166339 -7.748359
LeftToeBase 4.725543 -0.000000 -0.000000
RightUpLeg 11.989188 -12.532418 -8.844354
RightLeg 14.271074 -0.000000 -0.000000
RightFoot 36.766242 4.609568 1.266359
RightToeBase 12.916563 -0.000000 -0.000000
464
root -8.887614 32.670094 1.255770 148.901108 -78.664658 -103.164624
Spine -26.541168 11.033598 -1.763769
Head -24.579867 4.008281 11.974353
LeftShoulder -9.371029 23.444163 10.783503
LeftArm 17.179316 40.658691 -68.366688
LeftForeArm 10.890567 0.000000 17.621927
LeftHand -26.801864 0.000000 -4.883263
LeftHandThumb1 -26.253704 0.000000 33.147579
RightShoulder -17.654517 7.648300 -23.886951
RightArm -23.402677 -35.607811 103.938886
RightForeArm -25.906872 -0.000000 16.397409
RightHand -2.928350 -0.000000 18.134317
RightHandThumb1 -24.326973 -0.000000 -32.862282
LeftUpLeg -36.985642 6.180898 -2.394120
LeftLeg -8.011427 -0.000000 0.000000
LeftFoot -10.983268 14.011141 -7.731653
LeftToeBase 4.780407 -0.000000 -0.000000
RightUpLeg 12.027733 -12.522162 -8.920285
RightLeg 14.253406 -0.000000 -0.000000
RightFoot 36.789234 4.532355 1.303774
RightToeBase 13.089419 -0.000000 -0.000000
